# xmcd
#
# Track frame offsets:
#	150
#	17807
#	37778
#	56726
#	68479
#	83999
#	98096
#	114365
#	129107
#	145510
#	161370
#	178571
#	192999
#	208870
#	225607
#	238310
#	252660
#	266882
#
# Disc length: 3867 seconds
#
# Revision: 0
# Processed by: cddbd v1.5.1PL2 Copyright (c) Steve Scherf et al.
# Submitted via: dBpowerAMP V4.0
#
DISCID=f30f1912
DTITLE=Woodie&Cleda Jane cochran - The cowboy and the lady
DYEAR=1900
DGENRE=Country
TTITLE0=The fires are burning down in Dixie
TTITLE1=The midnight serenade
TTITLE2=Ghostriders in the sky
TTITLE3=Ti yi yippi yippi ya 
TTITLE4=Faded love
TTITLE5=Smilin'blue eyes
TTITLE6=Have I told you lately that I love you
TTITLE7=Yippi I O Ky Ya
TTITLE8=Home on the range
TTITLE9=Rose of San Antone
TTITLE10=Itty bitty outlaw
TTITLE11=Roll on
TTITLE12=Mamma's medley
TTITLE13=Cold cold heart
TTITLE14=The yellowrose of Texas
TTITLE15=She'll be comin'round the mountain
TTITLE16=Take me back to Tulsa
TTITLE17=The lone prairie
EXTD=
EXTT0=
EXTT1=
EXTT2=
EXTT3=
EXTT4=
EXTT5=
EXTT6=
EXTT7=
EXTT8=
EXTT9=
EXTT10=
EXTT11=
EXTT12=
EXTT13=
EXTT14=
EXTT15=
EXTT16=
EXTT17=
PLAYORDER=
